<?xml version="1.0" encoding="utf-8"?>
<!-- Generator: Adobe Illustrator 25.2.1, SVG Export Plug-In . SVG Version: 6.00 Build 0)  -->
<svg version="1.1" id="Camada_1" xmlns="http://www.w3.org/2000/svg" xmlns:xlink="http://www.w3.org/1999/xlink" x="0px" y="0px"
	 viewBox="0 0 595.28 841.89" style="enable-background:new 0 0 595.28 841.89;" xml:space="preserve">
<style type="text/css">
	.st0{fill:#FFFFFF;}
</style>
<g>
	<g>
		<path class="st0" d="M83.47,418.76c-4.5,0-8.99-0.05-13.49,0.02c-3.08,0.04-5.73-0.96-8.03-2.93c-1.63-1.4-3.22-2.86-4.83-4.29
			c-0.19-0.17-0.38-0.34-0.58-0.5c-1.63-1.26-3.08-1.32-4.72-0.04c-1,0.78-1.9,1.72-2.81,2.61c-1.47,1.43-2.91,2.89-4.37,4.33
			c-0.32,0.32-0.72,0.5-1.16,0.31c-0.43-0.18-0.48-0.59-0.48-1c0-9.66-0.01-19.32,0.02-28.98c0.01-1.91,0.89-3.48,2.22-4.81
			c2.53-2.52,5.07-5.04,7.6-7.55c2.44-2.42,4.86-4.86,7.33-7.25c1.48-1.43,3.29-2.16,5.37-2.16c4.55,0,9.1,0,13.64-0.01
			c2.23-0.01,4.15,0.77,5.72,2.33c4.07,4.03,8.12,8.08,12.18,12.11c0.86,0.86,1.74,1.7,2.6,2.55c1.46,1.44,2.17,3.19,2.17,5.24
			c-0.01,3.35-0.03,6.7,0.01,10.05c0.03,2.22-0.75,4.06-2.44,5.46c-1.66,1.37-3.39,2.65-5.09,3.97c-0.05,0.04-0.12,0.07-0.17,0.11
			c-1.49,1.15-1.59,2.31-0.26,3.65c1.73,1.75,3.5,3.47,5.26,5.19c0.31,0.3,0.6,0.59,0.42,1.06c-0.18,0.48-0.61,0.51-1.02,0.51
			c-2.33,0.01-4.65,0.01-6.98,0.02C88.88,418.77,86.17,418.77,83.47,418.76L83.47,418.76z M72.41,376.3v0.01
			c-4.82,0-9.64-0.01-14.47,0.01c-2.38,0.01-3.97,1.65-3.97,4.02c0,1.27,0,2.53,0,3.8c0,6.36-0.01,12.72,0,19.08
			c0.01,3.28,2.49,5.84,5.69,5.84c8.48,0.01,16.96,0.01,25.45,0c3.3-0.01,5.77-2.43,5.78-5.72c0.03-7.73,0.02-15.46,0-23.19
			c0-1.44-0.65-2.6-1.95-3.33c-0.77-0.43-1.6-0.53-2.47-0.53C81.78,376.31,77.1,376.3,72.41,376.3z"/>
	</g>
</g>
<g>
	<path class="st0" d="M122.76,399.24c0-10.17,8.11-16.6,17.1-16.6c8.98,0,17.16,6.43,17.16,16.6s-8.17,16.6-17.16,16.6
		S122.76,409.41,122.76,399.24z M152.15,404.3c0-8.24-6.74-20.03-16.91-19.47c-5.12,0.25-7.55,4.43-7.55,9.36
		c0,8.05,6.49,19.47,16.1,19.47C149.53,413.66,152.15,409.41,152.15,404.3z"/>
	<path class="st0" d="M164.82,384.71l5.8-2.06h0.87c-0.12,1.5-0.19,3-0.31,4.49c2.93-2.37,6.36-4.55,10.17-4.55
		c2.06,0,4.24,0.75,5.74,1.81l-3.12,5.68c-2.37-2.68-4.18-4.8-6.74-4.93c-2.25-0.19-4.43,1.62-6.11,3.18
		c-0.5,8.92-0.37,18.16,0.37,26.89h-6.68C165.69,405.61,165.69,394.31,164.82,384.71z"/>
	<path class="st0" d="M192.45,371.48l5.8-2.06h0.87c-0.87,15.29-0.87,30.51,0,45.8h-6.68C193.33,400.93,193.33,385.77,192.45,371.48
		z"/>
	<path class="st0" d="M206.93,398.99c0.12-10.48,7.61-16.35,15.35-16.35c4.24,0,7.36,1.37,9.73,3.56c-0.06-0.62-0.06-1.25-0.12-1.87
		l5.8-1.68h0.87c-0.87,10.61-0.87,21.96,0,32.57h-6.68c0.12-1.19,0.19-2.43,0.25-3.68c-2.31,2.5-5.62,4.18-9.05,4.31
		C214.1,415.96,206.87,408.66,206.93,398.99z M232.2,410.29c0.37-5.55,0.44-11.54,0.19-17.16c-0.37-5.37-4.12-9.48-9.55-9.42
		c-5.62,0.06-9.42,4.55-9.86,10.48c-0.94,8.8,4.18,18.72,12.1,19.03C227.83,413.34,230.7,412.1,232.2,410.29z"/>
	<path class="st0" d="M248.67,384.71l5.8-2.06h0.87c-0.12,1.56-0.19,3.06-0.31,4.68c3.49-2.5,8.11-4.62,12.92-4.68
		c5.37-0.12,7.24,2.37,7.8,6.93c0.75,3.43,0,8.11,0.75,25.64h-6.68c0.87-17.47,0.87-23.27-0.87-27.14
		c-0.87-1.87-2.62-2.81-4.74-2.81c-3.31,0-6.55,1.19-9.23,3.06c-0.5,8.92-0.37,18.16,0.37,26.89h-6.68
		C249.54,405.61,249.54,394.31,248.67,384.71z"/>
	<path class="st0" d="M284.11,398.99c0.12-10.48,7.61-16.35,15.35-16.35c4.62,0.06,7.74,1.62,10.11,4.24
		c-0.12-5.18-0.37-10.36-0.62-15.41l5.8-2.06h0.87c-0.87,15.29-0.87,30.51,0,45.8h-6.68l0.19-3.56c-2.25,2.43-5.43,4.06-8.86,4.18
		C291.28,415.96,284.04,408.66,284.11,398.99z M309.19,410.47c0.31-5.8,0.44-11.61,0.37-17.41c-0.25-5.68-4.43-9.17-9.55-9.11
		c-5.62,0.06-9.42,4.3-9.86,10.23c-0.94,8.8,4.18,18.72,12.1,19.03C304.94,413.34,307.69,412.16,309.19,410.47z"/>
	<path class="st0" d="M323.41,399.24c0-10.17,8.11-16.6,17.1-16.6s17.16,6.43,17.16,16.6s-8.17,16.6-17.16,16.6
		S323.41,409.41,323.41,399.24z M352.8,404.3c0-8.24-6.74-20.03-16.91-19.47c-5.12,0.25-7.55,4.43-7.55,9.36
		c0,8.05,6.49,19.47,16.1,19.47C350.18,413.66,352.8,409.41,352.8,404.3z"/>
	<path class="st0" d="M366.4,409.29l1-0.56c3.12,4.43,7.99,6.05,12.1,5.8c13.41-0.5,13.79-23.21,0.06-23.33v-0.81
		c10.17-4.24,7.61-18.53,0.87-18.53c-3.68,0-6.55,2.25-8.73,7.99l-4.93-1.75c2.37-4.55,7.05-7.05,12.1-7.18
		c14.41-0.31,17.53,12.79,5.87,18.72c16.97,2.93,13.85,26.14-5.24,26.21C373.07,415.84,368.39,412.66,366.4,409.29z"/>
	<path class="st0" d="M402.59,396c0.81-13.85,10.48-23.02,24.21-24.71l0.06,0.5c-7.8,1.19-13.91,7.05-16.91,15.16
		c2.56-2.56,6.24-3.56,9.48-3.56c8.92-0.06,15.29,7.17,14.91,16.35c-0.25,9.42-7.49,16.6-16.53,16.1
		C408.2,415.34,401.9,406.48,402.59,396z M429.16,402.61c0.38-8.36-4.3-17.59-12.23-17.59c-5.12,0.06-8.11,5.05-8.42,11.67
		c-0.44,8.42,3.87,17.16,11.85,17.59C425.61,414.53,428.79,409.23,429.16,402.61z"/>
	<path class="st0" d="M441.14,393.44c0-13.1,7.92-22.59,18.03-22.59c10.04,0,18.03,9.98,18.03,22.59c0,13.17-7.86,22.4-18.03,22.4
		C449.13,415.84,441.14,406.11,441.14,393.44z M471.03,396.75c0-1.31,0-2.37-0.12-3.31c-1-11.42-6.68-21.34-13.6-21.34
		c-6.05,0-9.98,8.17-9.98,18.03c0,1.31,0,2.37,0.12,3.31c1,11.36,6.68,21.09,13.6,21.09C467.16,414.53,471.03,406.54,471.03,396.75z
		"/>
</g>
<g>
	<path class="st0" d="M490.07,389.74c-0.83,0-1.56-0.17-2.18-0.5s-1.1-0.79-1.44-1.36c-0.34-0.58-0.51-1.24-0.51-1.97
		c0-0.75,0.17-1.41,0.5-1.98s0.79-1.02,1.37-1.35c0.58-0.33,1.25-0.49,2-0.49c0.73,0,1.38,0.16,1.95,0.48s1.02,0.77,1.34,1.34
		c0.33,0.58,0.49,1.26,0.49,2.04c0,0.08,0,0.16-0.01,0.25c0,0.09-0.01,0.18-0.02,0.27h-6.23v-1.16h5.31l-0.69,0.36
		c0.01-0.43-0.08-0.81-0.27-1.13c-0.19-0.33-0.44-0.58-0.76-0.77s-0.69-0.28-1.11-0.28c-0.43,0-0.81,0.09-1.13,0.28
		s-0.57,0.45-0.76,0.78c-0.18,0.33-0.27,0.72-0.27,1.17V386c0,0.45,0.1,0.84,0.31,1.19s0.5,0.61,0.87,0.8s0.8,0.28,1.29,0.28
		c0.42,0,0.8-0.07,1.13-0.2s0.63-0.34,0.9-0.62l0.94,1.08c-0.34,0.39-0.76,0.69-1.27,0.9S490.73,389.74,490.07,389.74z"/>
	<path class="st0" d="M497.58,389.74c-0.62,0-1.22-0.08-1.8-0.25c-0.57-0.16-1.03-0.36-1.37-0.59l0.67-1.33
		c0.34,0.21,0.74,0.39,1.2,0.53s0.93,0.21,1.4,0.21c0.55,0,0.95-0.07,1.2-0.22s0.37-0.35,0.37-0.6c0-0.21-0.08-0.36-0.25-0.47
		s-0.39-0.19-0.66-0.25s-0.57-0.11-0.9-0.15c-0.33-0.05-0.66-0.11-0.99-0.19s-0.63-0.2-0.9-0.35s-0.49-0.36-0.66-0.62
		s-0.25-0.61-0.25-1.04c0-0.48,0.14-0.89,0.41-1.24s0.65-0.62,1.14-0.81c0.49-0.19,1.07-0.29,1.74-0.29c0.5,0,1.01,0.06,1.53,0.17
		c0.51,0.11,0.94,0.27,1.27,0.48l-0.67,1.33c-0.35-0.21-0.71-0.36-1.07-0.44c-0.36-0.08-0.72-0.12-1.07-0.12
		c-0.53,0-0.93,0.08-1.18,0.24c-0.26,0.16-0.39,0.36-0.39,0.6c0,0.22,0.08,0.39,0.25,0.5s0.39,0.2,0.66,0.27s0.57,0.12,0.9,0.16
		s0.66,0.11,0.99,0.19c0.33,0.08,0.63,0.2,0.9,0.34s0.5,0.35,0.67,0.61c0.17,0.26,0.25,0.6,0.25,1.02c0,0.47-0.14,0.87-0.41,1.22
		c-0.28,0.35-0.67,0.61-1.17,0.8C498.88,389.64,498.28,389.74,497.58,389.74z"/>
	<path class="st0" d="M501.48,383.62v-1.4h4.98v1.4H501.48z M505.29,389.74c-0.82,0-1.46-0.21-1.9-0.64
		c-0.45-0.42-0.67-1.05-0.67-1.88v-6.71h1.75v6.66c0,0.35,0.09,0.63,0.27,0.83c0.18,0.2,0.44,0.29,0.76,0.29
		c0.39,0,0.72-0.1,0.98-0.31l0.49,1.25c-0.21,0.17-0.46,0.29-0.76,0.38S505.61,389.74,505.29,389.74z"/>
	<path class="st0" d="M511.58,389.74c-0.63,0-1.19-0.12-1.68-0.36s-0.86-0.6-1.13-1.09c-0.27-0.49-0.41-1.11-0.41-1.86v-4.27h1.75
		v4.03c0,0.67,0.15,1.17,0.46,1.5c0.3,0.33,0.74,0.5,1.29,0.5c0.41,0,0.77-0.08,1.07-0.25s0.54-0.42,0.71-0.76s0.26-0.75,0.26-1.25
		v-3.78h1.75v7.48h-1.67v-2.02l0.29,0.62c-0.25,0.49-0.62,0.86-1.11,1.11S512.15,389.74,511.58,389.74z M510.82,381.14l1.89-1.92
		h2.06l-2.44,1.92H510.82z"/>
	<path class="st0" d="M521.11,389.74c-0.72,0-1.36-0.16-1.94-0.48c-0.57-0.32-1.02-0.77-1.35-1.34c-0.33-0.57-0.49-1.24-0.49-2.02
		c0-0.77,0.16-1.45,0.49-2.02c0.33-0.57,0.78-1.01,1.35-1.33s1.22-0.48,1.94-0.48c0.63,0,1.19,0.14,1.68,0.41
		c0.49,0.28,0.89,0.69,1.18,1.25s0.43,1.28,0.43,2.16c0,0.87-0.14,1.58-0.42,2.15c-0.28,0.56-0.67,0.99-1.16,1.27
		C522.32,389.6,521.75,389.74,521.11,389.74z M521.32,388.24c0.42,0,0.79-0.09,1.13-0.28c0.33-0.19,0.6-0.46,0.8-0.81
		s0.3-0.77,0.3-1.25c0-0.49-0.1-0.9-0.3-1.25s-0.47-0.62-0.8-0.8c-0.33-0.19-0.71-0.28-1.13-0.28s-0.8,0.09-1.13,0.28
		s-0.6,0.46-0.8,0.8c-0.2,0.35-0.3,0.77-0.3,1.25s0.1,0.89,0.3,1.25s0.47,0.63,0.8,0.81C520.52,388.15,520.9,388.24,521.32,388.24z
		 M523.59,389.64v-1.76l0.07-1.99l-0.14-1.99v-4.65h1.74v10.39L523.59,389.64L523.59,389.64z"/>
	<path class="st0" d="M528.45,380.93c-0.33,0-0.6-0.1-0.81-0.31s-0.31-0.45-0.31-0.74c0-0.3,0.1-0.55,0.31-0.75s0.48-0.3,0.81-0.3
		s0.59,0.1,0.8,0.29c0.21,0.19,0.32,0.43,0.32,0.72c0,0.31-0.1,0.57-0.31,0.78S528.78,380.93,528.45,380.93z M527.56,389.64v-7.48
		h1.75v7.48H527.56z"/>
	<path class="st0" d="M534.97,389.74c-0.77,0-1.45-0.17-2.04-0.5c-0.6-0.33-1.07-0.79-1.41-1.36c-0.34-0.58-0.52-1.24-0.52-1.97
		c0-0.75,0.17-1.41,0.52-1.98c0.35-0.57,0.82-1.02,1.41-1.35c0.6-0.33,1.28-0.49,2.04-0.49c0.77,0,1.46,0.16,2.07,0.49
		c0.6,0.33,1.07,0.78,1.41,1.34c0.34,0.57,0.51,1.23,0.51,1.99c0,0.74-0.17,1.4-0.51,1.97c-0.34,0.58-0.81,1.03-1.41,1.36
		C536.43,389.57,535.74,389.74,534.97,389.74z M534.97,388.24c0.43,0,0.81-0.09,1.15-0.28s0.6-0.46,0.79-0.81s0.29-0.77,0.29-1.25
		c0-0.49-0.1-0.9-0.29-1.25s-0.46-0.62-0.79-0.8s-0.71-0.28-1.13-0.28c-0.43,0-0.81,0.09-1.14,0.28s-0.59,0.46-0.79,0.8
		c-0.2,0.35-0.29,0.77-0.29,1.25s0.1,0.89,0.29,1.25c0.2,0.36,0.46,0.63,0.79,0.81S534.55,388.24,534.97,388.24z"/>
	<path class="st0" d="M488.21,403.64l-2.74-7.48h1.65l2.35,6.59h-0.78l2.46-6.59h1.47l2.39,6.59h-0.77l2.42-6.59h1.55l-2.76,7.48
		h-1.68l-2.18-5.84h0.52l-2.23,5.84H488.21z"/>
	<path class="st0" d="M502.73,403.74c-0.83,0-1.56-0.17-2.18-0.5s-1.1-0.79-1.44-1.36c-0.34-0.58-0.51-1.24-0.51-1.97
		c0-0.75,0.17-1.41,0.5-1.98s0.79-1.02,1.37-1.35c0.58-0.33,1.25-0.49,2-0.49c0.73,0,1.38,0.16,1.95,0.48s1.02,0.77,1.34,1.34
		c0.33,0.58,0.49,1.26,0.49,2.04c0,0.08,0,0.16-0.01,0.25c0,0.09-0.01,0.18-0.02,0.27h-6.23v-1.16h5.31l-0.69,0.36
		c0.01-0.43-0.08-0.81-0.27-1.13c-0.19-0.33-0.44-0.58-0.76-0.77s-0.69-0.28-1.11-0.28c-0.43,0-0.81,0.09-1.13,0.28
		s-0.57,0.45-0.76,0.78c-0.18,0.33-0.27,0.72-0.27,1.17V400c0,0.45,0.1,0.84,0.31,1.19s0.5,0.61,0.87,0.8s0.8,0.28,1.29,0.28
		c0.42,0,0.8-0.07,1.13-0.2s0.63-0.34,0.9-0.62l0.94,1.08c-0.34,0.39-0.76,0.69-1.27,0.9S503.38,403.74,502.73,403.74z"/>
	<path class="st0" d="M507.92,403.64v-10.39h1.75v4.65l-0.14,1.99l0.06,1.99v1.76L507.92,403.64L507.92,403.64z M512.07,403.74
		c-0.63,0-1.2-0.14-1.69-0.42s-0.88-0.7-1.17-1.27c-0.28-0.56-0.43-1.28-0.43-2.15c0-0.88,0.15-1.6,0.44-2.16s0.69-0.98,1.19-1.25
		s1.05-0.41,1.66-0.41c0.74,0,1.39,0.16,1.95,0.48s1.01,0.76,1.34,1.33s0.5,1.24,0.5,2.02s-0.17,1.45-0.5,2.02s-0.78,1.01-1.34,1.34
		C513.46,403.58,512.8,403.74,512.07,403.74z M511.87,402.24c0.42,0,0.8-0.09,1.13-0.28s0.6-0.46,0.79-0.81
		c0.2-0.35,0.29-0.77,0.29-1.25c0-0.49-0.1-0.9-0.29-1.25c-0.2-0.35-0.46-0.62-0.79-0.8s-0.71-0.28-1.13-0.28s-0.8,0.09-1.13,0.28
		s-0.6,0.46-0.8,0.8c-0.2,0.35-0.29,0.77-0.29,1.25s0.1,0.89,0.29,1.25c0.2,0.36,0.46,0.63,0.8,0.81S511.45,402.24,511.87,402.24z"
		/>
	<path class="st0" d="M520.69,403.74c-0.72,0-1.36-0.16-1.94-0.48c-0.57-0.32-1.02-0.77-1.35-1.34c-0.33-0.57-0.49-1.24-0.49-2.02
		c0-0.77,0.16-1.45,0.49-2.02c0.33-0.57,0.78-1.01,1.35-1.33s1.22-0.48,1.94-0.48c0.63,0,1.19,0.14,1.68,0.41
		c0.49,0.28,0.89,0.69,1.18,1.25s0.43,1.28,0.43,2.16c0,0.87-0.14,1.58-0.42,2.15c-0.28,0.56-0.67,0.99-1.16,1.27
		C521.9,403.6,521.33,403.74,520.69,403.74z M520.9,402.24c0.42,0,0.79-0.09,1.13-0.28c0.33-0.19,0.6-0.46,0.8-0.81
		s0.3-0.77,0.3-1.25c0-0.49-0.1-0.9-0.3-1.25s-0.47-0.62-0.8-0.8c-0.33-0.19-0.71-0.28-1.13-0.28s-0.8,0.09-1.13,0.28
		s-0.6,0.46-0.8,0.8c-0.2,0.35-0.3,0.77-0.3,1.25s0.1,0.89,0.3,1.25s0.47,0.63,0.8,0.81C520.1,402.15,520.48,402.24,520.9,402.24z
		 M523.17,403.64v-1.76l0.07-1.99l-0.14-1.99v-4.65h1.74v10.39L523.17,403.64L523.17,403.64z"/>
	<path class="st0" d="M530.66,403.74c-0.83,0-1.56-0.17-2.18-0.5s-1.1-0.79-1.44-1.36c-0.34-0.58-0.51-1.24-0.51-1.97
		c0-0.75,0.17-1.41,0.5-1.98s0.79-1.02,1.37-1.35c0.58-0.33,1.25-0.49,2-0.49c0.73,0,1.38,0.16,1.95,0.48s1.02,0.77,1.34,1.34
		c0.33,0.58,0.49,1.26,0.49,2.04c0,0.08,0,0.16-0.01,0.25c0,0.09-0.01,0.18-0.02,0.27h-6.23v-1.16h5.31l-0.69,0.36
		c0.01-0.43-0.08-0.81-0.27-1.13c-0.19-0.33-0.44-0.58-0.76-0.77s-0.69-0.28-1.11-0.28c-0.43,0-0.81,0.09-1.13,0.28
		s-0.57,0.45-0.76,0.78c-0.18,0.33-0.27,0.72-0.27,1.17V400c0,0.45,0.1,0.84,0.31,1.19s0.5,0.61,0.87,0.8s0.8,0.28,1.29,0.28
		c0.42,0,0.8-0.07,1.13-0.2s0.63-0.34,0.9-0.62l0.94,1.08c-0.34,0.39-0.76,0.69-1.27,0.9S531.31,403.74,530.66,403.74z"/>
	<path class="st0" d="M538.16,403.74c-0.62,0-1.22-0.08-1.8-0.25c-0.57-0.16-1.03-0.36-1.37-0.59l0.67-1.33
		c0.34,0.21,0.74,0.39,1.2,0.53s0.93,0.21,1.4,0.21c0.55,0,0.95-0.07,1.2-0.22s0.37-0.35,0.37-0.6c0-0.21-0.08-0.36-0.25-0.47
		s-0.39-0.19-0.66-0.25c-0.27-0.06-0.57-0.11-0.9-0.15c-0.33-0.05-0.66-0.11-0.99-0.19s-0.63-0.2-0.9-0.35s-0.49-0.36-0.66-0.62
		s-0.25-0.61-0.25-1.04c0-0.48,0.14-0.89,0.41-1.24s0.65-0.62,1.14-0.81s1.07-0.29,1.74-0.29c0.5,0,1.01,0.06,1.53,0.17
		c0.51,0.11,0.94,0.27,1.27,0.48l-0.67,1.33c-0.35-0.21-0.71-0.36-1.07-0.44c-0.36-0.08-0.72-0.12-1.07-0.12
		c-0.53,0-0.93,0.08-1.18,0.24c-0.26,0.16-0.39,0.36-0.39,0.6c0,0.22,0.08,0.39,0.25,0.5s0.39,0.2,0.66,0.27s0.57,0.12,0.9,0.16
		s0.66,0.11,0.99,0.19c0.33,0.08,0.63,0.2,0.9,0.34s0.5,0.35,0.67,0.61c0.17,0.26,0.25,0.6,0.25,1.02c0,0.47-0.14,0.87-0.41,1.22
		c-0.28,0.35-0.67,0.61-1.17,0.8C539.46,403.64,538.86,403.74,538.16,403.74z"/>
	<path class="st0" d="M543.94,394.93c-0.33,0-0.6-0.1-0.81-0.31s-0.31-0.45-0.31-0.74c0-0.3,0.1-0.55,0.31-0.75s0.48-0.3,0.81-0.3
		s0.59,0.1,0.8,0.29c0.21,0.19,0.32,0.43,0.32,0.72c0,0.31-0.1,0.57-0.31,0.78S544.28,394.93,543.94,394.93z M543.06,403.64v-7.48
		h1.75v7.48H543.06z"/>
	<path class="st0" d="M550.27,403.3c-0.71,0-1.35-0.15-1.92-0.46c-0.57-0.3-1.03-0.73-1.36-1.27c-0.33-0.54-0.5-1.18-0.5-1.9
		s0.17-1.35,0.5-1.89s0.78-0.96,1.36-1.26c0.57-0.3,1.22-0.45,1.92-0.45c0.63,0,1.2,0.13,1.71,0.38c0.5,0.25,0.91,0.64,1.21,1.18
		c0.3,0.53,0.45,1.21,0.45,2.04s-0.15,1.51-0.45,2.05c-0.3,0.54-0.71,0.93-1.21,1.19C551.48,403.17,550.91,403.3,550.27,403.3z
		 M550.5,406.45c-0.69,0-1.37-0.09-2.02-0.27c-0.66-0.18-1.2-0.45-1.62-0.79l0.78-1.32c0.33,0.27,0.74,0.49,1.24,0.65
		s1.01,0.25,1.52,0.25c0.82,0,1.42-0.19,1.81-0.57s0.57-0.94,0.57-1.7v-1.33l0.14-1.69l-0.06-1.69v-1.82h1.67v6.34
		c0,1.35-0.35,2.35-1.04,2.99C552.8,406.13,551.8,406.45,550.5,406.45z M550.54,401.82c0.44,0,0.83-0.09,1.18-0.27
		s0.61-0.43,0.8-0.76c0.19-0.32,0.29-0.69,0.29-1.11s-0.1-0.79-0.29-1.11s-0.46-0.57-0.8-0.74c-0.35-0.17-0.74-0.26-1.18-0.26
		s-0.83,0.09-1.18,0.26s-0.62,0.42-0.81,0.74s-0.29,0.69-0.29,1.11s0.1,0.79,0.29,1.11c0.19,0.32,0.46,0.57,0.81,0.76
		C549.71,401.73,550.1,401.82,550.54,401.82z"/>
	<path class="st0" d="M561.06,396.08c0.6,0,1.13,0.12,1.6,0.35s0.84,0.59,1.11,1.07c0.27,0.48,0.41,1.1,0.41,1.85v4.28h-1.75v-4.06
		c0-0.66-0.16-1.16-0.47-1.48c-0.31-0.33-0.75-0.49-1.31-0.49c-0.41,0-0.78,0.08-1.09,0.25s-0.56,0.42-0.73,0.75
		s-0.26,0.75-0.26,1.25v3.78h-1.75v-7.48h1.67v2.02l-0.29-0.62c0.26-0.48,0.64-0.84,1.14-1.1
		C559.83,396.21,560.41,396.08,561.06,396.08z"/>
</g>
</svg>
