<svg id="Camada_1" data-name="Camada 1" xmlns="http://www.w3.org/2000/svg" viewBox="0 0 524.51 52.27"><defs><style>.cls-1{fill:#fff;}</style></defs><path class="cls-1" d="M83.47,417.87c-4.49,0-9-.05-13.49,0A11.72,11.72,0,0,1,62,415c-1.64-1.4-3.22-2.86-4.83-4.29-.19-.17-.38-.34-.58-.5a3.4,3.4,0,0,0-4.72,0A36.61,36.61,0,0,0,49,412.73c-1.47,1.43-2.91,2.89-4.37,4.34a1,1,0,0,1-1.16.31c-.43-.18-.48-.59-.48-1,0-9.66,0-19.32,0-29a6.7,6.7,0,0,1,2.22-4.8l7.6-7.56c2.44-2.42,4.85-4.86,7.33-7.25a7.48,7.48,0,0,1,5.37-2.16H79.17A7.81,7.81,0,0,1,84.9,368q6.1,6,12.18,12.11c.86.86,1.74,1.7,2.6,2.55a7.08,7.08,0,0,1,2.17,5.25c0,3.35,0,6.7,0,10.05a6.62,6.62,0,0,1-2.44,5.46c-1.65,1.37-3.39,2.64-5.09,4l-.17.12c-1.49,1.15-1.59,2.31-.26,3.65,1.73,1.74,3.5,3.46,5.26,5.19.3.3.59.58.41,1s-.61.51-1,.52H83.47ZM72.41,375.41h0c-4.82,0-9.64,0-14.46,0a3.81,3.81,0,0,0-4,4v3.8c0,6.36,0,12.72,0,19.08a5.7,5.7,0,0,0,5.68,5.85H85.11a5.62,5.62,0,0,0,5.78-5.72q0-11.59,0-23.19a3.65,3.65,0,0,0-2-3.33,4.89,4.89,0,0,0-2.47-.52Z" transform="translate(-42.99 -365.62)"/><path class="cls-1" d="M122.76,398.35c0-10.17,8.11-16.6,17.1-16.6S157,388.18,157,398.35,148.84,415,139.86,415,122.76,408.52,122.76,398.35Zm29.39,5c0-8.23-6.74-20-16.91-19.46-5.11.25-7.55,4.43-7.55,9.36,0,8.05,6.49,19.46,16.1,19.46C149.53,412.76,152.15,408.52,152.15,403.4Z" transform="translate(-42.99 -365.62)"/><path class="cls-1" d="M164.82,383.81l5.8-2.06h.87c-.12,1.5-.19,3-.31,4.5,2.93-2.37,6.36-4.56,10.17-4.56a10.45,10.45,0,0,1,5.74,1.81L184,389.18c-2.37-2.68-4.18-4.81-6.74-4.93-2.24-.19-4.43,1.62-6.11,3.18a192.7,192.7,0,0,0,.37,26.89h-6.67A178.65,178.65,0,0,0,164.82,383.81Z" transform="translate(-42.99 -365.62)"/><path class="cls-1" d="M192.45,370.59l5.81-2.06h.87a402,402,0,0,0,0,45.79h-6.68A362.51,362.51,0,0,0,192.45,370.59Z" transform="translate(-42.99 -365.62)"/><path class="cls-1" d="M206.93,398.1c.12-10.48,7.61-16.35,15.35-16.35a13.74,13.74,0,0,1,9.73,3.56c-.06-.62-.06-1.25-.12-1.87l5.8-1.69h.87a203.55,203.55,0,0,0,0,32.57h-6.67c.12-1.18.18-2.43.25-3.68a13.27,13.27,0,0,1-9,4.31C214.1,415.07,206.87,407.77,206.93,398.1Zm25.27,11.29a158.11,158.11,0,0,0,.18-17.15c-.37-5.37-4.11-9.49-9.54-9.43-5.62.07-9.42,4.56-9.86,10.49-.93,8.79,4.18,18.71,12.11,19A9.15,9.15,0,0,0,232.2,409.39Z" transform="translate(-42.99 -365.62)"/><path class="cls-1" d="M248.67,383.81l5.8-2.06h.87c-.12,1.56-.18,3.06-.31,4.68A23.63,23.63,0,0,1,268,381.75c5.36-.12,7.23,2.37,7.8,6.93.74,3.43,0,8.11.74,25.64h-6.67c.87-17.47.87-23.27-.88-27.14a4.93,4.93,0,0,0-4.74-2.81,16.37,16.37,0,0,0-9.23,3.06,192.7,192.7,0,0,0,.37,26.89h-6.67A178.65,178.65,0,0,0,248.67,383.81Z" transform="translate(-42.99 -365.62)"/><path class="cls-1" d="M284.11,398.1c.12-10.48,7.61-16.35,15.34-16.35,4.62.07,7.74,1.63,10.11,4.25-.12-5.18-.37-10.36-.62-15.41l5.8-2.06h.87a402,402,0,0,0,0,45.79h-6.67l.19-3.55a12.87,12.87,0,0,1-8.87,4.18C291.28,415.07,284,407.77,284.11,398.1Zm25.08,11.48q.46-8.7.37-17.41a9.14,9.14,0,0,0-9.54-9.11c-5.62.07-9.43,4.31-9.86,10.24-.94,8.79,4.18,18.71,12.1,19A9.13,9.13,0,0,0,309.19,409.58Z" transform="translate(-42.99 -365.62)"/><path class="cls-1" d="M323.41,398.35c0-10.17,8.11-16.6,17.1-16.6s17.16,6.43,17.16,16.6S349.49,415,340.51,415,323.41,408.52,323.41,398.35Zm29.39,5c0-8.23-6.74-20-16.91-19.46-5.12.25-7.55,4.43-7.55,9.36,0,8.05,6.49,19.46,16.1,19.46C350.18,412.76,352.8,408.52,352.8,403.4Z" transform="translate(-42.99 -365.62)"/><path class="cls-1" d="M366.4,408.4l1-.57a13.74,13.74,0,0,0,12.1,5.81c13.42-.5,13.79-23.21.06-23.34v-.81c10.17-4.24,7.61-18.53.88-18.53-3.68,0-6.55,2.25-8.74,8l-4.93-1.75A13.72,13.72,0,0,1,378.88,370c14.41-.31,17.53,12.79,5.86,18.72,17,2.93,13.85,26.14-5.24,26.21C373.07,415,368.39,411.76,366.4,408.4Z" transform="translate(-42.99 -365.62)"/><path class="cls-1" d="M402.59,395.11c.81-13.86,10.48-23,24.2-24.71l.07.5c-7.8,1.18-13.92,7.05-16.91,15.16a13.46,13.46,0,0,1,9.48-3.56c8.92-.06,15.29,7.18,14.91,16.35-.25,9.42-7.48,16.6-16.53,16.1C408.2,414.45,401.9,405.59,402.59,395.11Zm26.57,6.61c.38-8.36-4.3-17.6-12.22-17.6-5.12.07-8.12,5.06-8.43,11.67-.43,8.43,3.87,17.16,11.86,17.6C425.61,413.64,428.79,408.33,429.16,401.72Z" transform="translate(-42.99 -365.62)"/><path class="cls-1" d="M441.14,392.55c0-13.1,7.93-22.59,18-22.59s18,10,18,22.59c0,13.16-7.87,22.4-18,22.4S441.14,405.21,441.14,392.55Zm29.89,3.3a24.94,24.94,0,0,0-.13-3.3c-1-11.42-6.67-21.34-13.6-21.34-6.05,0-10,8.17-10,18a27.27,27.27,0,0,0,.12,3.31c1,11.35,6.68,21.09,13.61,21.09C467.16,413.64,471,405.65,471,395.85Z" transform="translate(-42.99 -365.62)"/><path class="cls-1" d="M489.46,385.51a2.31,2.31,0,0,0,.91,1.46,3,3,0,0,0,1.75.5,2.43,2.43,0,0,0,2.14-1l1.48.87a4.14,4.14,0,0,1-3.64,1.81,4.42,4.42,0,0,1-3.27-1.24,4.37,4.37,0,0,1,3.14-7.5,3.89,3.89,0,0,1,3,1.28,4.39,4.39,0,0,1,1.17,3.11,6.15,6.15,0,0,1-.06.74Zm0-1.46h4.89a2.51,2.51,0,0,0-.84-1.53A2.44,2.44,0,0,0,492,382a2.5,2.5,0,0,0-1.66.55A2.46,2.46,0,0,0,489.44,384.05Z" transform="translate(-42.99 -365.62)"/><path class="cls-1" d="M499,382.88a.72.72,0,0,0,.46.65,7.6,7.6,0,0,0,1.11.43l1.32.41a2.3,2.3,0,0,1,1.13.77,2.2,2.2,0,0,1,.45,1.42,2.22,2.22,0,0,1-.92,1.88,3.84,3.84,0,0,1-2.32.68,4.05,4.05,0,0,1-2.11-.52,3,3,0,0,1-1.28-1.43l1.55-.89a1.76,1.76,0,0,0,1.84,1.19q1.41,0,1.41-.93a.73.73,0,0,0-.45-.64,5.82,5.82,0,0,0-1.11-.45l-1.32-.41a2.4,2.4,0,0,1-1.13-.75,2.06,2.06,0,0,1-.46-1.37,2.25,2.25,0,0,1,.88-1.84,3.32,3.32,0,0,1,2.16-.7,3.62,3.62,0,0,1,1.84.46,3.1,3.1,0,0,1,1.24,1.27l-1.51.85a1.57,1.57,0,0,0-1.57-.95,1.55,1.55,0,0,0-.86.22A.73.73,0,0,0,499,382.88Z" transform="translate(-42.99 -365.62)"/><path class="cls-1" d="M509.34,382.32h-2.06v4a1,1,0,0,0,.23.74,1.08,1.08,0,0,0,.69.25,11.09,11.09,0,0,0,1.14,0v1.61a4.43,4.43,0,0,1-3-.36,2.51,2.51,0,0,1-.89-2.23v-4H504V380.6h1.53v-1.8l1.79-.53v2.33h2.06Z" transform="translate(-42.99 -365.62)"/><path class="cls-1" d="M516.65,380.6h1.79v8.3h-1.79v-1.06a2.83,2.83,0,0,1-2.58,1.28,3.07,3.07,0,0,1-2.31-.92,3.46,3.46,0,0,1-.88-2.5v-5.1h1.8v4.91a1.9,1.9,0,0,0,.5,1.43,1.84,1.84,0,0,0,1.36.5,2.07,2.07,0,0,0,1.53-.59,2.49,2.49,0,0,0,.58-1.8Zm.33-3.32-1.76,2.24h-1.73l1.33-2.24Z" transform="translate(-42.99 -365.62)"/><path class="cls-1" d="M527.11,377.28h1.8V388.9h-1.8v-1.19a3.35,3.35,0,0,1-2.9,1.41,3.92,3.92,0,0,1-2.93-1.27,4.59,4.59,0,0,1,0-6.21,3.91,3.91,0,0,1,2.93-1.26,3.36,3.36,0,0,1,2.9,1.4Zm-4.5,9.37a2.69,2.69,0,0,0,3.75,0,2.78,2.78,0,0,0,0-3.8,2.69,2.69,0,0,0-3.75,0,2.78,2.78,0,0,0,0,3.8Z" transform="translate(-42.99 -365.62)"/><path class="cls-1" d="M532.7,379a1.15,1.15,0,0,1-2-.8,1.13,1.13,0,0,1,.33-.81,1.15,1.15,0,0,1,1.63,0,1.13,1.13,0,0,1,.33.81A1.08,1.08,0,0,1,532.7,379ZM531,388.9v-8.3h1.79v8.3Z" transform="translate(-42.99 -365.62)"/><path class="cls-1" d="M538.79,389.12a4.37,4.37,0,1,1,3.11-7.48,4.37,4.37,0,0,1-3.11,7.48Zm-1.85-2.49a2.63,2.63,0,0,0,3.69-3.76,2.64,2.64,0,0,0-3.69,0,2.76,2.76,0,0,0,0,3.76Z" transform="translate(-42.99 -365.62)"/><path class="cls-1" d="M555.53,377.28h1.79V388.9h-1.79v-1.19a3.36,3.36,0,0,1-2.91,1.41,3.92,3.92,0,0,1-2.92-1.27,4.59,4.59,0,0,1,0-6.21,3.91,3.91,0,0,1,2.92-1.26,3.38,3.38,0,0,1,2.91,1.4Zm-4.5,9.37a2.69,2.69,0,0,0,3.75,0,2.78,2.78,0,0,0,0-3.8,2.69,2.69,0,0,0-3.75,0,2.78,2.78,0,0,0,0,3.8Z" transform="translate(-42.99 -365.62)"/><path class="cls-1" d="M560.83,385.51a2.31,2.31,0,0,0,.91,1.46,3,3,0,0,0,1.75.5,2.43,2.43,0,0,0,2.14-1l1.48.87a4.14,4.14,0,0,1-3.64,1.81,4.42,4.42,0,0,1-3.27-1.24,4.37,4.37,0,0,1,3.14-7.5,3.89,3.89,0,0,1,3,1.28,4.39,4.39,0,0,1,1.17,3.11,6.15,6.15,0,0,1-.06.74Zm0-1.46h4.89a2.51,2.51,0,0,0-.84-1.53,2.44,2.44,0,0,0-1.54-.51,2.5,2.5,0,0,0-1.66.55A2.46,2.46,0,0,0,560.81,384.05Z" transform="translate(-42.99 -365.62)"/><path class="cls-1" d="M492.75,394.38a3.91,3.91,0,0,1,2.92,1.26,4.59,4.59,0,0,1,0,6.21,3.92,3.92,0,0,1-2.92,1.27,3.36,3.36,0,0,1-2.91-1.41v1.19h-1.79V391.28h1.79v4.5A3.38,3.38,0,0,1,492.75,394.38Zm-2.16,6.27a2.69,2.69,0,0,0,3.75,0,2.78,2.78,0,0,0,0-3.8,2.69,2.69,0,0,0-3.75,0,2.78,2.78,0,0,0,0,3.8Z" transform="translate(-42.99 -365.62)"/><path class="cls-1" d="M500.3,396a2.55,2.55,0,0,1,2.56-1.54v1.94a2.67,2.67,0,0,0-1.79.49,2.12,2.12,0,0,0-.77,1.84v4.18h-1.79v-8.3h1.79Z" transform="translate(-42.99 -365.62)"/><path class="cls-1" d="M510.39,394.6h1.79v8.3h-1.79v-1.19a3.38,3.38,0,0,1-2.91,1.41,3.9,3.9,0,0,1-2.92-1.27,4.56,4.56,0,0,1,0-6.21,3.89,3.89,0,0,1,2.92-1.26,3.39,3.39,0,0,1,2.91,1.4Zm-4.51,6a2.71,2.71,0,0,0,3.76,0,2.78,2.78,0,0,0,0-3.8,2.71,2.71,0,0,0-3.76,0,2.81,2.81,0,0,0,0,3.8Z" transform="translate(-42.99 -365.62)"/><path class="cls-1" d="M518.64,394.38a3.1,3.1,0,0,1,2.31.91,3.46,3.46,0,0,1,.88,2.51v5.1H520V398a1.94,1.94,0,0,0-.5-1.43,1.82,1.82,0,0,0-1.37-.5,2,2,0,0,0-1.52.59,2.45,2.45,0,0,0-.58,1.8v4.45h-1.8v-8.3h1.8v1.06A2.83,2.83,0,0,1,518.64,394.38Z" transform="translate(-42.99 -365.62)"/><path class="cls-1" d="M530.33,391.28h1.8V402.9h-1.8v-1.19a3.35,3.35,0,0,1-2.9,1.41,3.94,3.94,0,0,1-2.93-1.27,4.59,4.59,0,0,1,0-6.21,3.93,3.93,0,0,1,2.93-1.26,3.36,3.36,0,0,1,2.9,1.4Zm-4.5,9.37a2.71,2.71,0,0,0,3.76,0,2.81,2.81,0,0,0,0-3.8,2.71,2.71,0,0,0-3.76,0,2.78,2.78,0,0,0,0,3.8Z" transform="translate(-42.99 -365.62)"/><path class="cls-1" d="M535.92,393a1.07,1.07,0,0,1-.8.34,1.1,1.1,0,0,1-.81-.34,1.08,1.08,0,0,1-.34-.8,1.13,1.13,0,0,1,.33-.81,1.09,1.09,0,0,1,.82-.34,1.07,1.07,0,0,1,.81.34,1.13,1.13,0,0,1,.33.81A1.08,1.08,0,0,1,535.92,393Zm-1.7,9.89v-8.3H536v8.3Z" transform="translate(-42.99 -365.62)"/><path class="cls-1" d="M542.46,394.38a3.1,3.1,0,0,1,2.31.91,3.5,3.5,0,0,1,.88,2.51v5.1h-1.8V398a1.94,1.94,0,0,0-.49-1.43,1.84,1.84,0,0,0-1.37-.5,2,2,0,0,0-1.52.59,2.45,2.45,0,0,0-.59,1.8v4.45h-1.79v-8.3h1.79v1.06A2.86,2.86,0,0,1,542.46,394.38Z" transform="translate(-42.99 -365.62)"/><path class="cls-1" d="M554.18,394.6H556v7.92a3.55,3.55,0,0,1-1.25,2.91,4.67,4.67,0,0,1-3,1c-1.92,0-3.23-.67-3.94-2l1.54-.9a2.46,2.46,0,0,0,2.43,1.28,2.61,2.61,0,0,0,1.82-.6,2.19,2.19,0,0,0,.65-1.69v-1a3.31,3.31,0,0,1-2.89,1.44,4,4,0,0,1-3-1.25,4.4,4.4,0,0,1,0-6.06,4,4,0,0,1,3-1.26,3.29,3.29,0,0,1,2.89,1.45Zm-4.52,5.93a2.77,2.77,0,0,0,3.77,0,2.53,2.53,0,0,0,.75-1.86,2.49,2.49,0,0,0-.75-1.86,2.74,2.74,0,0,0-3.77,0,2.47,2.47,0,0,0-.76,1.86A2.5,2.5,0,0,0,549.66,400.53Z" transform="translate(-42.99 -365.62)"/></svg>